<?xml version="1.0" encoding="UTF-8"?>
<svg width="174px" height="229px" viewBox="0 0 174 229" version="1.1" xmlns="http://www.w3.org/2000/svg" xmlns:xlink="http://www.w3.org/1999/xlink">
    <!-- Generator: Sketch 55.2 (78181) - https://sketchapp.com -->
    <title>Group 5</title>
    <desc>Created with Sketch.</desc>
    <defs>
        <filter x="-17.8%" y="-13.1%" width="135.5%" height="126.2%" filterUnits="objectBoundingBox" id="filter-1">
            <feOffset dx="0" dy="2" in="SourceAlpha" result="shadowOffsetOuter1"></feOffset>
            <feGaussianBlur stdDeviation="6" in="shadowOffsetOuter1" result="shadowBlurOuter1"></feGaussianBlur>
            <feColorMatrix values="0 0 0 0 1   0 0 0 0 1   0 0 0 0 1  0 0 0 0.5 0" type="matrix" in="shadowBlurOuter1" result="shadowMatrixOuter1"></feColorMatrix>
            <feMerge>
                <feMergeNode in="shadowMatrixOuter1"></feMergeNode>
                <feMergeNode in="SourceGraphic"></feMergeNode>
            </feMerge>
        </filter>
    </defs>
    <g id="Page-1" stroke="none" stroke-width="1" fill="none" fill-rule="evenodd">
        <g id="Artboard" transform="translate(-147.000000, -36.000000)">
            <g id="Group-9" transform="translate(141.000000, 45.000000)">
                <g id="Group-5" filter="url(#filter-1)" transform="translate(17.000000, 0.000000)">
                    <g id="Group">
                        <path d="M69.9251873,140 C68.402108,130.179142 67.3617532,120.162526 66.8148239,110.078347 C60.0103093,108.879541 98.1241514,104.813647 95.9067096,108.533065 C91.9961647,115.095317 94.2671105,126.064742 93.0472202,135.010748 C85.3390833,136.673832 77.6321353,138.336916 69.9251873,140 Z" id="Fill-97" fill="#EACDB0"></path>
                        <path d="M69.9251873,140 C68.402108,130.179142 67.3617532,120.162526 66.8148239,110.078347 C60.0103093,108.879541 98.1241514,104.813647 95.9067096,108.533065 C91.9961647,115.095317 94.2671105,126.064742 93.0472202,135.010748 C85.3390833,136.673832 77.6321353,138.336916 69.9251873,140 Z" id="Fill-97" fill-opacity="0.5" fill="#000000"></path>
                        <path d="M57.9853942,132.75061 C51.7891269,133.695693 46.6622904,135.26936 41.6485895,136.817755 C34.1185111,139.143557 30.3874126,140.171675 27.9186711,143.432932 C25.616656,146.473965 24.4126532,149.659407 23.2348504,152.768231 C20.8447084,159.074532 19.8479228,165.428569 19,171.775786 L19,206 L152,200.663797 C149.377632,196.225599 130.129095,136.875519 119.207326,133.704518 C107.338788,130.258737 81.8153593,130.722052 67.5769254,131.745758 C64.6937497,131.952745 61.8308194,132.211881 59.1060338,132.587748 C58.7297085,132.639896 58.355765,132.694049 57.9853942,132.75061 Z" id="Fill-60" fill="#000000"></path>
                        <g id="Group-2" fill="#040100">
                            <path d="M73.73359,119.224846 C73.98706,119.64825 74.31669,120.048 74.74747,120.420548 C76.44679,121.890635 78.71969,122.641644 80.94023,122.817865 C83.86644,123.049673 86.78432,122.387365 89.62723,121.663558 C93.46855,120.684288 93.19009,118.430077 93.53162,114.886731 C93.71845,112.950663 93.78985,111.0075 93.81246,109.063154 C93.82555,107.997548 93.17224,104.22476 93.80651,103.439452 C94.2361,102.90724 96.12582,102.959279 96.92312,102.481471 C98.18571,101.722183 99.19721,100.407029 99.90526,99.1462788 C101.04647,97.1132308 101.59982,94.8152596 102.14127,92.5504038 C103.08375,88.6096731 104.02504,84.6689423 104.96633,80.7282115 C105.92904,76.7023269 106.89532,72.6421442 107.02503,68.5050865 C107.22138,62.2711154 105.66129,53.5842404 100.66805,49.3442885 C96.11392,45.4780673 89.75694,44.4207404 83.9664,44.0481923 C76.29804,43.5561923 68.49878,45.4307596 62.18107,49.8528462 C59.62971,51.6398942 57.24614,53.8976538 55.86217,56.8851346 C53.72731,61.4893558 54.26281,67.0397308 54.84948,72.2234712 C55.39212,77.0074615 55.93357,81.7926346 56.47621,86.5778077 C57.09977,92.0796923 58.19219,98.3988173 62.54283,101.133202 C64.85262,102.584365 67.76336,102.745212 69.78279,104.664721 C72.31273,107.070317 72.40079,110.910519 72.70424,114.141635 C72.87798,115.987817 72.84823,117.747663 73.73359,119.224846" id="Fill-49"></path>
                            <path d="M93.90409,55.6811538 C94.19445,56.1152019 94.44316,56.5681731 94.64308,57.0424327 C95.69028,59.532 95.27259,62.4414231 96.29837,64.9404519 C97.92748,68.9001058 102.83028,71.0360481 103.81084,75.2003077 C104.61409,78.6064615 102.45305,82.0268077 102.47328,85.5252115 C102.4947,89.3476731 105.17577,92.7987692 105.03178,96.5822019 C104.90802,99.8677212 103.11231,104.586663 101.31541,107.325779 C101.87233,106.476606 107.39036,106.423385 108.76243,105.468952 C110.86516,104.004779 111.06151,103.15324 111.56964,100.849356 C112.0742,98.5608462 111.43398,96.3764135 112.29435,94.0110288 C113.35107,91.1098846 115.75725,88.8769615 116.45697,85.8090577 C117.41016,81.6223269 114.93496,77.4225865 114.83738,73.1305962 C114.68863,66.63525 119.93891,60.1801154 117.50536,54.15075 C116.07736,50.6121346 112.40383,48.5235 110.21304,45.3940962 C108.54942,43.0180673 107.81043,40.1405769 106.59544,37.5114519 C105.38045,34.8811442 103.41219,32.2957788 100.57285,31.6523942 C98.9961,31.2940385 97.342,31.5837981 95.7355,31.3898365 C92.95923,31.0527692 90.56138,29.3130288 87.86127,28.5880385 C83.99853,27.552 77.56539,31.7694808 75.55905,35.0916635 C73.56699,38.391375 74.84148,41.0110385 77.25837,43.6673654 C81.28295,48.0918173 90.49117,50.5778365 93.90409,55.6811538" id="Fill-50"></path>
                            <path d="M53.8376682,71.0124408 C54.1280282,71.4464889 54.3767382,71.89946 54.5766582,72.3737197 C55.6238582,74.863287 55.2061682,77.77271 56.2319482,80.2717389 C57.8610582,84.2313927 62.7638582,86.367335 63.7444182,90.5315947 C64.5476682,93.9377485 62.3866282,97.3580947 62.4068582,100.856499 C62.4282782,104.67896 65.1093482,108.130056 64.9653582,111.913489 C64.8415982,115.199008 63.0458882,119.91795 61.2489882,122.657066 C61.8059082,121.807893 67.3239382,121.754672 68.6960082,120.800239 C70.7987382,119.336066 70.9950882,118.484527 71.5032182,116.180643 C72.0077782,113.892133 71.3675582,111.7077 72.2279282,109.342316 C73.2846482,106.441172 75.6908282,104.208249 76.3905482,101.140345 C77.3437382,96.9536139 74.8685382,92.7538735 74.7709582,88.4618831 C74.6222082,81.966537 79.8724882,75.5114024 77.4389382,69.482037 C76.0109382,65.9434216 72.3374082,63.854787 70.1466182,60.7253831 C68.4829982,58.3493543 67.7440082,55.4718639 66.5290182,52.8427389 C65.3140282,50.2124312 63.3457682,47.6270658 60.5064282,46.9836812 C58.9296782,46.6253254 57.2755782,46.915085 55.6690782,46.7211235 C52.8928082,46.3840562 50.4949582,44.6443158 47.7948482,43.9193254 C43.9321082,42.883287 37.4989682,47.1007677 35.4926282,50.4229504 C33.5005682,53.722662 34.7750582,56.3423254 37.1919482,58.9986524 C41.2165282,63.4231043 50.4247482,65.9091235 53.8376682,71.0124408" id="Fill-50"></path>
                            <path d="M54.5766582,72.3737197 C55.6238582,74.863287 55.2061682,77.77271 56.2319482,80.2717389 C57.8610582,84.2313927 62.7638582,86.367335 63.7444182,90.5315947 C64.5476682,93.9377485 62.3866282,97.3580947 62.4068582,100.856499 C62.4282782,104.67896 65.1093482,108.130056 64.9653582,111.913489 C64.8415982,115.199008 67.3239382,121.754672 68.6960082,120.800239 C70.7987382,119.336066 70.9950882,118.484527 71.5032182,116.180643 C72.0077782,113.892133 71.3675582,111.7077 72.2279282,109.342316 C73.2846482,106.441172 75.6908282,104.208249 76.3905482,101.140345 C77.3437382,96.9536139 74.8685382,92.7538735 74.7709582,88.4618831 C74.6222082,81.966537 79.8724882,75.5114024 77.4389382,69.482037 C76.0109382,65.9434216 72.3374082,63.854787 70.1466182,60.7253831 C68.4829982,58.3493543 67.7440082,55.4718639 66.5290182,52.8427389 C65.3140282,50.2124312 63.3457682,47.6270658 60.5064282,46.9836812 C58.9296782,46.6253254 57.2755782,46.915085 55.6690782,46.7211235 C52.8928082,46.3840562 50.4949582,44.6443158 47.7948482,43.9193254 C43.9321082,42.883287 37.4989682,47.1007677 35.4926282,50.4229504 C33.5005682,53.722662 34.7750582,56.3423254 37.1919482,58.9986524 C41.2165282,63.4231043 50.4247482,65.9091235 53.8376682,71.0124408 C54.1280282,71.4464889 54.3767382,71.89946 54.5766582,72.3737197 Z" id="Fill-50"></path>
                            <path d="M72.4266582,72.3737197 C73.4738582,74.863287 73.0561682,77.77271 74.0819482,80.2717389 C75.7110582,84.2313927 80.6138582,86.367335 81.5944182,90.5315947 C82.3976682,93.9377485 80.2366282,97.3580947 80.2568582,100.856499 C80.2782782,104.67896 82.9593482,108.130056 82.8153582,111.913489 C82.7328515,114.103835 84.1158036,117.658314 86.9642143,122.576925 C89.0669443,121.112752 88.8450882,118.484527 89.3532182,116.180643 C89.8577782,113.892133 89.2175582,111.7077 90.0779282,109.342316 C91.1346482,106.441172 93.5408282,104.208249 94.2405482,101.140345 C95.1937382,96.9536139 92.7185382,92.7538735 92.6209582,88.4618831 C92.4722082,81.966537 97.7224882,75.5114024 95.2889382,69.482037 C93.8609382,65.9434216 90.1874082,63.854787 87.9966182,60.7253831 C86.3329982,58.3493543 85.5940082,55.4718639 84.3790182,52.8427389 C83.1640282,50.2124312 81.1957682,47.6270658 78.3564282,46.9836812 C76.7796782,46.6253254 75.1255782,46.915085 73.5190782,46.7211235 C70.7428082,46.3840562 68.3449582,44.6443158 65.6448482,43.9193254 C61.7821082,42.883287 55.3489682,47.1007677 53.3426282,50.4229504 C51.3505682,53.722662 52.6250582,56.3423254 55.0419482,58.9986524 C59.0665282,63.4231043 68.2747482,65.9091235 71.6876682,71.0124408 C71.9780282,71.4464889 72.2267382,71.89946 72.4266582,72.3737197 Z" id="Fill-50" transform="translate(74.146833, 83.168270) scale(-1, 1) translate(-74.146833, -83.168270) "></path>
                            <path d="M86.6905362,72.3737197 C87.7377362,74.863287 87.3200462,77.77271 88.3458262,80.2717389 C89.9749362,84.2313927 94.8777362,86.367335 95.8582962,90.5315947 C96.6615462,93.9377485 94.5005062,97.3580947 94.5207362,100.856499 C94.5421562,104.67896 97.2232262,108.130056 97.0792362,111.913489 C96.9554762,115.199008 95.1597662,119.91795 93.3628662,122.657066 C93.9197862,121.807893 99.4378162,121.754672 100.809886,120.800239 C102.912616,119.336066 104.453628,119.451923 105.313998,117.086538 C106.370718,114.185394 111.798107,119.248547 112.497827,116.180643 C113.451017,111.993912 106.982416,92.7538735 106.884836,88.4618831 C106.736086,81.966537 111.986366,75.5114024 109.552816,69.482037 C108.124816,65.9434216 104.451286,63.854787 102.260496,60.7253831 C100.596876,58.3493543 99.8578862,55.4718639 98.6428962,52.8427389 C97.4279062,50.2124312 95.4596462,47.6270658 92.6203062,46.9836812 C91.0435562,46.6253254 89.3894562,46.915085 87.7829562,46.7211235 C85.0066862,46.3840562 82.6088362,44.6443158 79.9087262,43.9193254 C76.0459862,42.883287 69.6128462,47.1007677 67.6065062,50.4229504 C65.6144462,53.722662 66.8889362,56.3423254 69.3058262,58.9986524 C73.3304062,63.4231043 82.5386262,65.9091235 85.9515462,71.0124408 C86.2419062,71.4464889 86.4906162,71.89946 86.6905362,72.3737197 Z" id="Fill-50" transform="translate(89.608772, 83.208341) scale(-1, 1) translate(-89.608772, -83.208341) "></path>
                            <path d="M83.1366582,67.6429504 C84.1838582,70.1325177 83.7661682,73.0419408 84.7919482,75.5409697 C86.4210582,79.5006235 91.3238582,81.6365658 92.3044182,85.8008254 C93.1076682,89.2069793 90.9466282,92.6273254 90.9668582,96.1257293 C90.9882782,99.9481908 93.6693482,103.399287 93.5253582,107.18272 C93.4015982,110.468239 96.086177,120.260885 94.289277,123 C94.846197,122.150827 97.2661013,120.038906 98.6381713,119.084474 C100.740901,117.620301 99.5550882,113.753758 100.063218,111.449874 C100.567778,109.161364 99.9275582,106.976931 100.787928,104.611547 C101.844648,101.710402 108.25549,105.908078 108.95521,102.840174 C109.9084,98.6534434 103.428538,88.0231043 103.330958,83.7311139 C103.182208,77.2357677 108.432488,70.7806331 105.998938,64.7512677 C104.570938,61.2126524 100.897408,59.1240177 98.7066182,55.9946139 C97.0429982,53.618585 96.3040082,50.7410947 95.0890182,48.1119697 C93.8740282,45.481662 91.9057682,42.8962966 89.0664282,42.252912 C87.4896782,41.8945562 85.8355782,42.1843158 84.2290782,41.9903543 C81.4528082,41.653287 79.0549582,39.9135466 76.3548482,39.1885562 C72.4921082,38.1525177 66.0589682,42.3699985 64.0526282,45.6921812 C62.0605682,48.9918927 63.3350582,51.6115562 65.7519482,54.2678831 C69.7765282,58.692335 78.9847482,61.1783543 82.3976682,66.2816716 C82.6880282,66.7157197 82.9367382,67.1686908 83.1366582,67.6429504 Z" id="Fill-50"></path>
                            <path d="M72.4266582,72.3737197 C73.4738582,74.863287 73.0561682,77.77271 74.0819482,80.2717389 C75.7110582,84.2313927 80.6138582,86.367335 81.5944182,90.5315947 C82.3976682,93.9377485 80.2366282,97.3580947 80.2568582,100.856499 C80.2782782,104.67896 79.2429782,108.72529 79.0989882,112.508723 C78.9752282,115.794242 84.5632638,123.17149 85.9353338,122.217058 C88.0380638,120.752885 88.8450882,118.484527 89.3532182,116.180643 C89.8577782,113.892133 95.8356978,118.546027 96.6960678,116.180643 C97.7527878,113.279499 95.9963478,120.154442 96.6960678,117.086538 C97.6492578,112.899808 92.7185382,92.7538735 92.6209582,88.4618831 C92.4722082,81.966537 97.7224882,75.5114024 95.2889382,69.482037 C93.8609382,65.9434216 90.1874082,63.854787 87.9966182,60.7253831 C86.3329982,58.3493543 85.5940082,55.4718639 84.3790182,52.8427389 C83.1640282,50.2124312 81.1957682,47.6270658 78.3564282,46.9836812 C76.7796782,46.6253254 75.1255782,46.915085 73.5190782,46.7211235 C70.7428082,46.3840562 68.3449582,44.6443158 65.6448482,43.9193254 C61.7821082,42.883287 55.3489682,47.1007677 53.3426282,50.4229504 C51.3505682,53.722662 52.6250582,56.3423254 55.0419482,58.9986524 C59.0665282,63.4231043 68.2747482,65.9091235 71.6876682,71.0124408 C71.9780282,71.4464889 72.2267382,71.89946 72.4266582,72.3737197 Z" id="Fill-50"></path>
                            <path d="M41.76067,39.713625 C39.59725,41.5089519 36.87453,42.8761442 34.9265,44.9363942 C31.12802,48.9528173 30.74127,55.0223942 30.94119,60.531375 C31.11969,65.436 29.23949,69.9219519 30.0951,74.9921538 C30.66868,78.397125 32.35372,81.7713462 35.28707,83.6210769 C38.94156,85.9225962 44.45364,85.9947404 46.26601,89.8999904 C48.23308,94.141125 44.04785,99.8972885 47.03594,103.502135 C48.68528,105.491423 51.67813,105.610875 53.93675,106.876356 C56.45717,108.287308 57.87803,110.999221 59.5119,113.370519 C61.14696,115.743 63.52339,118.072904 66.4139,117.954635 C66.25563,113.584587 66.16757,110.119298 64.03985,106.244798 C62.80106,103.989404 59.31436,99.9008365 61.62653,97.2291346 C63.05334,95.0399712 66.68879,94.1304808 66.61858,91.5238269 C66.58645,90.2997404 65.66301,89.313375 64.92283,88.3341058 C62.05374,84.547125 61.45636,79.3007019 62.95457,74.8005577 C64.45397,70.3004135 67.89188,66.5666538 72.04617,64.23675 C76.91446,61.5082788 76.0291,60.3397788 77.18697,55.4706346 C78.25321,50.9905962 89.15718,45.3231346 90.26626,41.9146154 C91.07903,39.4215 92.08458,36.4328365 90.51259,33.8037115 C89.26309,31.7138942 87.16274,30.2946635 85.12903,28.9452115 C80.88073,26.1256731 76.12192,23.1795865 71.05966,23.8596346 C68.24888,24.2380962 65.67491,25.722375 62.85818,26.0570769 C60.97917,26.2806058 59.07874,25.9825673 57.18664,26.0381538 C53.96174,26.1315865 50.62855,27.3142788 48.14383,29.3804423 C45.6365,31.4655288 45.83761,33.471375 44.54884,36.2873654 C43.91814,37.6675673 42.91973,38.7520962 41.76067,39.713625" id="Fill-51"></path>
                            <path d="M52.0149,21.0661154 C52.31835,17.9946635 51.75072,14.0539327 48.76501,13.2083077 C47.12876,12.745875 45.3747,13.4744135 43.68966,13.2414231 C40.09943,12.7446923 38.62383,8.55323077 36.56989,5.58467308 C36.26287,5.14116346 35.9023,4.69292308 35.39298,4.504875 C34.66589,4.23640385 33.87216,4.56400962 33.10937,4.70593269 C29.60839,5.35286538 26.70955,2.06025 23.30734,1.01238462 C19.09712,-0.283846154 14.08484,2.59246154 13.11023,6.86552885 C12.71039,8.62064423 12.91626,10.4680096 12.54617,12.2302212 C11.05391,19.3689519 0.89845,22.9998173 1.0948,30.2899327 C1.22927,35.2158462 6.36531,39.6237404 4.77071,44.2906442 C3.75088,47.2745769 0.10948,49.492125 0.7378,52.5813173 C1.14002,54.5682404 3.37484,55.7994231 5.40855,55.6444904 C7.44226,55.4895577 9.24273,54.2631058 10.69215,52.8367788 C12.99242,50.5719231 14.65604,47.7476538 16.83374,45.3657115 C19.01263,42.9849519 21.99001,40.9779231 25.22205,41.1754327 C28.35175,41.3682115 31.31366,43.5964038 34.3672,42.8903365 C36.81146,42.3250096 38.50483,40.0223077 40.89197,39.2535577 C43.12441,38.5356635 45.54011,39.2748462 47.88679,39.2689327 C50.23347,39.2630192 53.02878,37.8745385 52.94429,35.5446346 C52.92406,34.9793077 52.7289,34.4068846 52.87289,33.8604808 C53.27749,32.3288942 55.86098,32.2543846 56.25606,30.7204327 C54.91731,28.9262885 53.23822,29.7033173 52.21006,27.3154615 C51.41395,25.4680962 51.8245,22.9939038 52.0149,21.0661154" id="Fill-52"></path>
                        </g>
                    </g>
                </g>
            </g>
        </g>
    </g>
</svg>