<?xml version="1.0" encoding="UTF-8"?>
<svg width="170px" height="226px" viewBox="0 0 170 226" version="1.1" xmlns="http://www.w3.org/2000/svg" xmlns:xlink="http://www.w3.org/1999/xlink">
    <!-- Generator: Sketch 55.2 (78181) - https://sketchapp.com -->
    <title>Group 7</title>
    <desc>Created with Sketch.</desc>
    <defs>
        <filter x="-18.4%" y="-13.4%" width="136.7%" height="126.7%" filterUnits="objectBoundingBox" id="filter-1">
            <feOffset dx="0" dy="2" in="SourceAlpha" result="shadowOffsetOuter1"></feOffset>
            <feGaussianBlur stdDeviation="6" in="shadowOffsetOuter1" result="shadowBlurOuter1"></feGaussianBlur>
            <feColorMatrix values="0 0 0 0 1   0 0 0 0 1   0 0 0 0 1  0 0 0 0.2 0" type="matrix" in="shadowBlurOuter1" result="shadowMatrixOuter1"></feColorMatrix>
            <feMerge>
                <feMergeNode in="shadowMatrixOuter1"></feMergeNode>
                <feMergeNode in="SourceGraphic"></feMergeNode>
            </feMerge>
        </filter>
    </defs>
    <g id="Page-1" stroke="none" stroke-width="1" fill="none" fill-rule="evenodd">
        <g id="Artboard" transform="translate(-679.000000, -52.000000)">
            <g id="Group-4" transform="translate(662.000000, 62.000000)">
                <g id="Group-7" transform="translate(29.000000, 0.000000)">
                    <g id="Group-8" filter="url(#filter-1)">
                        <g id="Group-3">
                            <path d="M52.5038261,123.64733 C52.7917995,124.426058 66.4142509,123.67355 67.9104037,123.664373 C72.6004434,123.63291 74.9055397,122.283901 75.6974666,117.253634 C76.5587689,111.788118 78.2617389,106.773583 81.1244565,102.042221 C83.4400245,98.2128208 86.9834064,95.5698657 89.4442702,91.8820519 C91.6145425,88.6307977 93.4156853,85.1370103 94.8817318,81.514746 C97.2732201,75.6061158 98.8282765,69.3487623 99.8008413,63.0547011 C100.546954,58.2302593 98.981426,53.5159407 98.6345489,48.6456142 C98.3727549,44.9578004 98.0795456,41.1598635 96.4223895,37.8561696 C93.5138581,32.0602845 87.0488549,29.0030567 80.8103036,27.2620625 C63.0475799,22.3038998 29.2538999,24.0173632 26.409508,47.6033775 C25.7851292,52.7817865 26.0037272,58.020501 26.2249432,63.2303738 C26.6870096,74.2243327 23.7496808,94.5027202 35.8314744,100.665682 C39.2387235,102.404055 43.4640789,102.419787 46.4694741,104.787434 C51.7694939,108.961625 50.1633876,117.315251 52.5038261,123.64733" id="Fill-13" fill="#C9A98D"></path>
                            <path d="M52.5038261,123.64733 C52.7917995,124.426058 66.4142509,123.67355 67.9104037,123.664373 C72.6004434,123.63291 74.9055397,122.283901 75.6974666,117.253634 C76.5587689,111.788118 78.2617389,106.773583 81.1244565,102.042221 C83.4400245,98.2128208 86.9834064,95.5698657 89.4442702,91.8820519 C91.6145425,88.6307977 93.4156853,85.1370103 94.8817318,81.514746 C97.2732201,75.6061158 98.8282765,69.3487623 99.8008413,63.0547011 C100.546954,58.2302593 98.981426,53.5159407 98.6345489,48.6456142 C98.3727549,44.9578004 98.0795456,41.1598635 96.4223895,37.8561696 C93.5138581,32.0602845 87.0488549,29.0030567 80.8103036,27.2620625 C63.0475799,22.3038998 29.2538999,24.0173632 26.409508,47.6033775 C25.7851292,52.7817865 26.0037272,58.020501 26.2249432,63.2303738 C26.6870096,74.2243327 23.7496808,94.5027202 35.8314744,100.665682 C39.2387235,102.404055 43.4640789,102.419787 46.4694741,104.787434 C51.7694939,108.961625 50.1633876,117.315251 52.5038261,123.64733" id="Fill-13" fill-opacity="0.5" fill="#000000"></path>
                            <path d="M123.625337,19.7151773 C120.186927,15.4758111 116.369675,11.1573767 111.278259,9.27555669 C106.654823,7.56768642 101.619774,8.11062049 96.7983971,7.26459215 C91.7187787,6.37244078 86.9891623,3.9621825 82.0616048,2.3452405 C67.8491602,-2.32241114 51.7385769,0.0641267264 40.2003056,8.72998702 C33.3352833,13.8839073 13.8944697,8.53935419 16.9619038,18.2897648 C17.6304471,20.4127425 12.3031403,45.0847364 10.061492,45.0847364 C-4.03911257,45.0847364 22.7634003,81.1237941 27.036371,84.4995992 C40.865376,95.4250252 77.5115272,80.5632683 80.1883726,84.4995992 C82.3237786,87.6399193 86.4477733,97.7448184 91.1472397,94.2895438 C99.0766878,88.456956 101.298611,78.8870841 108.653899,73.2890649 C112.021522,70.7285772 115.17023,67.8913514 118.06594,64.8169213 C123.624026,58.9158078 127.062436,23.9545436 123.625337,19.7151773 Z" id="Fill-14" fill="#000000"></path>
                            <path d="M43.0891199,121.914 C36.240614,122.947291 30.5741104,124.667833 25.0326516,126.360745 C16.7099333,128.903622 12.5860876,130.027698 9.85747859,133.59334 C7.31314609,136.918201 5.98240622,140.400951 4.6806241,143.799933 C2.03888828,150.694822 0.937177828,157.641902 0,164.581526 L0,202 L147,196.165751 C144.101593,191.313321 122.826895,126.423901 110.755465,122.956939 C97.6376081,119.189552 69.4275024,119.69611 53.690286,120.815362 C50.5036181,121.041668 47.3393267,121.32499 44.3277215,121.735937 C43.911783,121.792953 43.4984771,121.852161 43.0891199,121.914 Z" id="Fill-60" fill="#000000"></path>
                        </g>
                    </g>
                </g>
            </g>
        </g>
    </g>
</svg>