<?xml version="1.0" encoding="UTF-8"?>
<svg width="187px" height="276px" viewBox="0 0 187 276" version="1.1" xmlns="http://www.w3.org/2000/svg" xmlns:xlink="http://www.w3.org/1999/xlink">
    <!-- Generator: Sketch 55.2 (78181) - https://sketchapp.com -->
    <title>Group 10</title>
    <desc>Created with Sketch.</desc>
    <defs>
        <filter x="-17.8%" y="-13.0%" width="135.5%" height="126.0%" filterUnits="objectBoundingBox" id="filter-1">
            <feOffset dx="0" dy="2" in="SourceAlpha" result="shadowOffsetOuter1"></feOffset>
            <feGaussianBlur stdDeviation="6" in="shadowOffsetOuter1" result="shadowBlurOuter1"></feGaussianBlur>
            <feColorMatrix values="0 0 0 0 1   0 0 0 0 1   0 0 0 0 1  0 0 0 0.2 0" type="matrix" in="shadowBlurOuter1" result="shadowMatrixOuter1"></feColorMatrix>
            <feMerge>
                <feMergeNode in="shadowMatrixOuter1"></feMergeNode>
                <feMergeNode in="SourceGraphic"></feMergeNode>
            </feMerge>
        </filter>
        <rect id="path-2" x="0" y="0" width="187" height="139"></rect>
    </defs>
    <g id="Page-1" stroke="none" stroke-width="1" fill="none" fill-rule="evenodd">
        <g id="Artboard" transform="translate(-437.000000, -54.000000)">
            <g id="Group-10" transform="translate(437.000000, 64.000000)">
                <g id="Group-6" filter="url(#filter-1)" transform="translate(22.000000, 0.000000)">
                    <path d="M85.3968571,122.975582 C76.5985,124.28068 67.8015,125.585778 59.0045,126.890876 C57.266,119.184 56.0785,111.323503 55.4542143,103.409987 C47.6872857,102.469229 38.5048571,100.408261 35.4567143,92.3316078 C34.4972143,89.7866667 34.3262143,86.9739085 34.1674286,84.2209673 C33.5092143,72.8435033 32.8537143,61.4660392 32.1955,50.0885752 C31.9688571,46.1528889 31.7544286,42.0962092 32.8930714,38.3739608 C34.8907857,31.8416732 40.5975714,27.7115817 46.2622857,25.0048627 C60.7172143,18.0946405 77.9393571,17.4366536 92.0075,25.4480523 C95.7518571,27.5797124 99.3265714,30.3870327 101.620143,34.3322353 C105.156857,40.4158954 105.141929,48.1567582 105.006214,55.3986928 C104.881357,62.0818824 104.7565,68.7650719 104.631643,75.4496209 C104.487786,83.1361046 103.803786,92.0121307 98.1702857,96.363817 C95.1791429,98.6735686 91.1918571,99.2785359 88.6607857,102.197333 C84.1971429,107.347033 86.7892857,115.955242 85.3968571,122.975582" id="Fill-97" fill="#EACDB0"></path>
                    <path d="M59.0045,126.890876 C57.266,119.184 56.0785,111.323503 55.4542143,103.409987 C47.6872857,102.469229 38.5048571,100.408261 35.4567143,92.3316078 C34.4972143,89.7866667 34.3262143,86.9739085 34.1674286,84.2209673 C33.5092143,72.8435033 32.8537143,61.4660392 32.1955,50.0885752 C31.9688571,46.1528889 31.7544286,42.0962092 32.8930714,38.3739608 C34.8907857,31.8416732 40.5975714,27.7115817 46.2622857,25.0048627 C60.7172143,18.0946405 77.9393571,17.4366536 92.0075,25.4480523 C95.7518571,27.5797124 99.3265714,30.3870327 101.620143,34.3322353 C105.156857,40.4158954 105.141929,48.1567582 105.006214,55.3986928 C104.881357,62.0818824 104.7565,68.7650719 104.631643,75.4496209 C104.487786,83.1361046 103.803786,92.0121307 98.1702857,96.363817 C95.1791429,98.6735686 91.1918571,99.2785359 88.6607857,102.197333 C84.1971429,107.347033 86.7892857,115.955242 85.3968571,122.975582 C76.5985,124.28068 67.8015,125.585778 59.0045,126.890876 Z" id="Fill-97" fill-opacity="0.5" fill="#000000"></path>
                    <path d="M24.4692857,9.91330719 C27.0926429,10.699085 29.9141429,10.7956078 32.5836429,10.194719 C32.5076429,8.55654902 32.4302857,6.91973856 32.3542857,5.2829281 C32.2972857,3.92073203 50.3269286,2.01882353 51.7885714,1.81898039 C65.4807857,-0.0516601307 78.0017857,-1.80402614 90.8159286,5.06133333 C101.761286,10.9261176 109.055929,20.1596863 111.316929,32.5567582 C113.476143,44.3991634 110.433429,60.1758954 104.163429,70.4290719 C104.042643,67.2519739 105.051,84.1860024 104.163429,81.2073881 C103.5595,78.2070221 73.1360526,103.271509 71.5861955,100.654515 C52.3053103,90.7231769 40.2473425,84.2408012 35.4122919,81.2073881 C32.0398474,79.0915845 27.6229536,29.773443 26.2552857,27.7007059 C25.7843571,26.9869804 21.9002143,18.5473464 22.2367857,18.5242353 C23.6645,18.4277124 25.0922143,18.3298301 26.5199286,18.2333072 C25.6445714,15.5143529 24.9592143,12.7315033 24.4692857,9.91330719 Z" id="Fill-99" fill="#000000"></path>
                    <path d="M44.7514365,124.34836 C37.6902223,125.425605 31.8477223,127.219337 26.1341508,128.984264 C17.5529365,131.635311 13.301008,132.807203 10.4876508,136.524522 C7.86429369,139.990819 6.49222226,143.62172 5.15000797,147.165289 C2.42622226,154.353477 1.29029369,161.596076 0.324007974,168.830901 L0.324007974,207.841104 L151.889693,201.758675 C148.901265,196.699829 126.965794,129.050105 114.519437,125.435665 C100.994151,121.508018 71.9078651,122.036124 55.6818651,123.202987 C52.3962223,123.43892 49.1336508,123.734294 46.028508,124.162723 C45.5996508,124.222163 45.173508,124.28389 44.7514365,124.34836 Z" id="Fill-60" fill="#000000"></path>
                    <path d="M34.0621548,28.9267642 C30.6626816,35.8050101 29.2490393,43.5973848 29.305585,51.3006421 C29.3203946,53.3476426 29.301546,55.716006 27.7438468,57.0068586 C26.0744025,58.3895292 27.7425005,61.1427179 26.3355898,59.4845934 C24.9286791,57.826469 20.146529,52.0594906 19.8355277,49.889616 C19.105819,44.8072215 18.8527097,39.6519128 19.0815851,34.5195586 C19.279495,30.0569354 19.9351558,25.3701683 22.6129983,21.8338264 C24.201663,19.7382163 26.3840575,18.208367 28.5354865,16.7230764 C31.6549239,14.5707552 34.8726431,12.3941293 38.5346499,11.4975539 C44.848919,9.95150138 48.8757801,12.0781675 43.4797054,16.9080626 C39.6144034,20.3674394 36.3926452,24.2143422 34.0621548,28.9267642" id="Fill-96" fill="#000000"></path>
                </g>
                <g id="Group-2" transform="translate(0.000000, 127.000000)">
                    <g id="Group">
                        <mask id="mask-3" fill="white">
                            <use xlink:href="#path-2"></use>
                        </mask>
                        <g id="Mask"></g>
                        <g mask="url(#mask-3)" id="Rectangle">
                            <polygon fill="#591010" points="-1.13686838e-13 28 33.5660549 4.93266764 138.830051 0.292982797 172.177913 8.64941689 187 28 187 139 -1.13686838e-13 139"></polygon>
                            <path d="M25,33.6485304 L25,150 L169,150 L169,34.1993105 L131.348619,21 L46.4625616,21 L25,33.6485304 Z" stroke="#000000" stroke-width="8" fill="#280508"></path>
                            <polygon fill-opacity="0.2" fill="#FFFFFF" points="0.0534376705 27.9287816 33.7034611 4.94783525 41.6324975 4.6200106"></polygon>
                            <polygon fill-opacity="0.2" fill="#FFFFFF" points="168.62242 9.96189381 149.061137 2.87752365 172.008719 8.71143684"></polygon>
                        </g>
                    </g>
                </g>
            </g>
        </g>
    </g>
</svg>